Coordinates
version=1
nRows=17
nColumns=33
inDegrees=yes

Units are S.I. units (second, meters, Newtons, ...)
Angles are in degrees.

endheader
time	ground_thorax_rot_x	ground_thorax_rot_y	ground_thorax_rot_z	ground_thorax_tx	ground_thorax_ty	ground_thorax_tz	clav_prot_r	clav_elev_r	scapula_abduction_r	scapula_elevation_r	scapula_upward_rot_r	scapula_winging_r	shoulder_elv_r	plane_of_elev_r	axial_rot_r	elbow_flexion_r	pro_sup_r	wrist_flex_r	wrist_dev_r	clav_prot_l	clav_elev_l	scapula_abduction_l	scapula_elevation_l	scapula_upward_rot_l	scapula_winging_l	shoulder_elv_l	plane_of_elev_l	axial_rot_l	elbow_flexion_l	pro_sup_l	wrist_flex_l	wrist_dev_l
      1.44000000	     -6.77403957	     -9.13352456	     90.00000000	      0.01300994	      0.95676858	      0.02210588	     29.27968050	     19.75709526	     45.00000000	     45.00000000	    -45.00000000	     -5.78227961	      1.63282837	    -58.49700078	      8.78165411	     82.00022352	     29.25405367	     11.27565841	     20.45914443	     28.69796384	     21.19650026	    -45.00000000	    -45.00000000	    -45.00000000	      5.70652267	     35.72862288	    -76.59818744	    -21.62236834	     83.82098556	     17.13696766	     23.76187668	     -7.51170291
      1.45000000	     -6.68200717	     -9.31531899	     90.00000000	      0.01405546	      0.95631620	      0.02196475	     29.27979545	     19.75743747	     45.00000000	     45.00000000	    -45.00000000	     -5.78169308	      1.76701292	    -56.58341159	      8.72882624	     80.75546467	     29.36466956	     10.42567243	     21.88733679	     28.69851544	     21.19679598	    -45.00000000	    -45.00000000	    -45.00000000	      5.70427787	     33.88579631	    -74.73437735	    -19.77655330	     82.63669630	     16.42558748	     24.95648954	     -5.99890934
      1.46000000	     -6.83021725	     -9.38629081	     90.00000000	      0.01512626	      0.95599818	      0.02214603	     29.27984429	     19.75761206	     45.00000000	     45.00000000	    -45.00000000	     -5.78245910	      0.89225379	    -54.72325092	      7.80659750	     79.16013857	     29.46758148	      9.80065036	     22.15442209	     28.69857995	     21.19628653	    -45.00000000	    -45.00000000	    -45.00000000	      5.70119084	     33.02998965	    -72.93929875	    -18.86637967	     81.33582281	     16.41273205	     25.17832039	     -5.38670011
      1.47000000	     -6.89051604	     -9.43009595	     90.00000000	      0.01617847	      0.95573383	      0.02229937	     29.28092991	     19.75767327	     45.00000000	     45.00000000	    -45.00000000	     -5.77811605	      0.12566947	    -52.93482518	      6.82335425	     77.56884372	     29.63622050	      9.14884974	     22.71184074	     28.69841449	     21.19668953	    -45.00000000	    -45.00000000	    -45.00000000	      5.70131637	     31.85684714	    -70.98484806	    -17.69551998	     79.83313451	     16.33285114	     25.71895574	     -4.50337156
      1.48000000	     -6.93613249	     -9.51042429	     90.00000000	      0.01722340	      0.95547671	      0.02236866	     29.27982148	     19.75716202	     45.00000000	     45.00000000	    -45.00000000	     -5.77587683	     -0.52991908	    -51.11991165	      5.97165660	     75.88120633	     29.88527426	      8.54682126	     23.38737880	     28.69796806	     21.19623849	    -45.00000000	    -45.00000000	    -45.00000000	      5.69555108	     30.57594543	    -69.04926679	    -16.37494663	     78.24011856	     16.27458550	     26.39143522	     -3.55243937
      1.49000000	     -6.92581250	     -9.59269499	     90.00000000	      0.01828009	      0.95526091	      0.02242371	     29.28045208	     19.75736976	     45.00000000	     45.00000000	    -45.00000000	     -5.77647893	     -1.05501554	    -49.33117814	      5.19533050	     74.11674055	     30.18330673	      8.00856551	     24.09013126	     28.69872452	     21.19671950	    -45.00000000	    -45.00000000	    -45.00000000	      5.69407891	     29.17560347	    -67.09183636	    -14.99825622	     76.53248480	     16.29870634	     27.13469765	     -2.60538507
      1.50000000	     -6.96709754	     -9.69004536	     90.00000000	      0.01928728	      0.95506870	      0.02263261	     29.28051533	     19.75705482	     45.00000000	     45.00000000	    -45.00000000	     -5.77381675	     -1.61875848	    -47.53130687	      4.52650789	     72.25891421	     30.48437141	      7.54392907	     24.69301173	     28.69906278	     21.19633651	    -45.00000000	    -45.00000000	    -45.00000000	      5.69133592	     27.90225385	    -65.16759858	    -13.57801582	     74.69063154	     16.45809473	     27.78989827	     -1.76996867
      1.51000000	     -7.06268207	     -9.79593778	     90.00000000	      0.02011691	      0.95469832	      0.02290187	     29.28055424	     19.75710011	     45.00000000	     45.00000000	    -45.00000000	     -5.77314977	     -1.95137012	    -45.67025080	      4.38318799	     70.24048394	     30.76830269	      7.18655859	     24.93806995	     28.69909284	     21.19622805	    -45.00000000	    -45.00000000	    -45.00000000	      5.69307227	     27.42676309	    -63.42448680	    -13.36873146	     72.86524400	     16.73293905	     27.97321098	     -1.33124172
      1.52000000	     -7.08386407	     -9.82092390	     90.00000000	      0.02128995	      0.95486910	      0.02295224	     29.28092186	     19.75690980	     45.00000000	     45.00000000	    -45.00000000	     -5.77009675	     -2.88554018	    -44.05163237	      2.98394345	     68.18002374	     30.95927415	      6.72911454	     25.36293407	     28.69957155	     21.19616921	    -45.00000000	    -45.00000000	    -45.00000000	      5.68666293	     25.59920785	    -61.37123707	    -11.09124744	     70.80162979	     17.03558159	     28.58454423	     -0.50900200
      1.53000000	     -7.05094416	     -9.93549627	     90.00000000	      0.02226524	      0.95488611	      0.02300362	     29.28087889	     19.75698105	     45.00000000	     45.00000000	    -45.00000000	     -5.76997450	     -3.27163401	    -42.34149537	      2.43867626	     66.07750171	     31.23633599	      6.43546355	     25.82111961	     28.69965722	     21.19645453	    -45.00000000	    -45.00000000	    -45.00000000	      5.68469026	     24.17531538	    -59.44811634	     -9.46673597	     68.70436941	     17.52728401	     29.22164797	      0.16788171
      1.54000000	     -7.27597856	     -9.94000665	     90.00000000	      0.02312357	      0.95467740	      0.02322132	     29.28074055	     19.75719074	     45.00000000	     45.00000000	    -45.00000000	     -5.77234015	     -3.66358376	    -40.66673551	      2.47176561	     63.91861033	     31.52895637	      6.10182472	     26.00252808	     28.69987670	     21.19615315	    -45.00000000	    -45.00000000	    -45.00000000	      5.68305660	     23.86156030	    -57.76558262	     -9.25659050	     66.77742192	     17.89471783	     29.30915226	      0.54522331
      1.55000000	     -7.31732707	    -10.08172413	     90.00000000	      0.02388585	      0.95480440	      0.02348548	     29.28117727	     19.75788233	     45.00000000	     45.00000000	    -45.00000000	     -5.76952496	     -4.16323628	    -38.89483151	      1.93429921	     61.56983324	     31.78155740	      5.71025566	     26.10201502	     28.69934189	     21.19581765	    -45.00000000	    -45.00000000	    -45.00000000	      5.68578342	     23.09881644	    -56.06381396	     -8.64130580	     64.58655015	     18.31608479	     29.40898590	      1.00389440
      1.56000000	     -7.13692709	    -10.17308774	     90.00000000	      0.02524518	      0.95523599	      0.02329557	     29.28145656	     19.75674011	     45.00000000	     45.00000000	    -45.00000000	     -5.76361901	     -4.81315991	    -37.58364075	      0.46027324	     59.63124590	     31.87826299	      5.54846812	     26.08652050	     28.70034914	     21.19601908	    -45.00000000	    -45.00000000	    -45.00000000	      5.67612211	     20.93241345	    -54.09071180	     -5.76147863	     62.32716993	     19.07570689	     29.75425086	      1.63237022
      1.57000000	     -7.18088473	    -10.28737918	     90.00000000	      0.02602133	      0.95530914	      0.02339905	     29.28136874	     19.75653866	     45.00000000	     45.00000000	    -45.00000000	     -5.76291263	     -5.01891103	    -35.97167498	      0.42223830	     57.44468270	     32.19156600	      5.26608981	     26.18794762	     28.70013208	     21.19639260	    -45.00000000	    -45.00000000	    -45.00000000	      5.67831582	     20.34901509	    -52.54648826	     -5.34773967	     60.29724039	     19.63113412	     29.85470837	      2.01306686
      1.58000000	     -7.03085697	    -10.40729479	     90.00000000	      0.02727171	      0.95579731	      0.02321654	     29.28184747	     19.75660883	     45.00000000	     45.00000000	    -45.00000000	     -5.76030642	     -5.32535399	    -34.71633691	     -0.23773923	     55.57363489	     32.47432021	      5.21488902	     26.03697435	     28.70050197	     21.19565837	    -45.00000000	    -45.00000000	    -45.00000000	      5.67140071	     18.61980370	    -50.73863311	     -2.92550282	     58.11080037	     20.76700862	     29.96889141	      2.45653074
      1.59000000	     -6.90815439	    -10.56945898	     90.00000000	      0.02827924	      0.95619370	      0.02308385	     29.28185159	     19.75675575	     45.00000000	     45.00000000	    -45.00000000	     -5.75859717	     -5.36788382	    -33.38775199	     -0.24980089	     53.71354255	     32.91952011	      5.15900479	     25.90823483	     28.70109068	     21.19592071	    -45.00000000	    -45.00000000	    -45.00000000	      5.66900535	     17.39671121	    -49.14592594	     -1.32260330	     56.08034156	     22.16423992	     30.00616727	      2.67452431
      1.60000000	     -6.95894988	    -10.61644359	     90.00000000	      0.02914261	      0.95647139	      0.02309711	     29.28171196	     19.75633332	     45.00000000	     45.00000000	    -45.00000000	     -5.75914404	     -5.58727741	    -32.10106148	     -0.30317425	     51.83408231	     33.28124080	      4.88249854	     25.90990424	     28.70110231	     21.19631050	    -45.00000000	    -45.00000000	    -45.00000000	      5.66860838	     16.89702906	    -47.77281561	     -0.85432657	     54.28171414	     22.89263254	     29.96023152	      2.92753870
